<svg width="771" height="322" viewBox="0 0 771 322" fill="none" xmlns="http://www.w3.org/2000/svg">
    <path
        d="M274.217 113.466V47.2212H207.298L160.255 0.0909424L113.217 47.2212H47.0998V113.466L0.0600586 160.596L47.0998 207.73V274.776H113.217L160.255 321.909L207.298 274.776H274.219V207.73L321.258 160.596L274.217 113.466ZM259.683 201.694V260.213H201.276L160.255 301.107L133.776 274.676L119.24 260.213H61.6341V201.694L46.899 187.127L20.5141 160.595L61.6341 119.5V61.7835H119.238L160.255 20.4878L186.738 47.1215L201.274 61.7835H259.683V119.5L274.016 134.064L300.602 160.596L259.683 201.694Z"
        fill="white" />
    <path d="M229.101 69.0646H208.543L252.412 112.219V91.6208L229.101 69.0646Z" fill="white" />
    <path d="M91.4142 69.0646L68.9045 91.6208V112.219L111.973 69.0646H91.4142Z" fill="white" />
    <path d="M208.543 252.929H229.101L252.412 229.575V208.975L208.543 252.929Z" fill="white" />
    <path d="M68.9045 208.975V229.575L91.4142 252.929H111.973L68.9045 208.975Z" fill="white" />
    <path d="M259.683 129.806V191.391L274.217 176.827V144.368L259.683 129.806Z" fill="white" />
    <path d="M129.525 260.213L144.061 274.776H176.455L190.991 260.213H129.525Z" fill="white" />
    <path d="M47.0999 144.368V176.827L61.6341 191.391V129.806L47.0999 144.368Z" fill="white" />
    <path d="M176.455 47.2212H144.061L129.525 61.7835H190.991L176.455 47.2212Z" fill="white" />
    <path
        d="M136.52 96.5607L131.842 98.5012L127.915 108.013L146.013 100.497L136.52 96.5607ZM222.234 132.123L212.739 128.192L220.243 146.325L224.166 136.815L222.234 132.123ZM100.273 174.869L96.3462 184.38L98.283 189.067L107.776 192.998L100.273 174.869ZM174.504 220.702L183.995 224.631L188.674 222.691L192.597 213.18L174.504 220.702Z"
        fill="white" />
    <path
        d="M249.277 123.651L212.404 108.349L197.134 71.4042L160.257 86.705L123.383 71.4042L108.11 108.349L71.2363 123.651L86.5094 160.596L71.2363 197.546L108.11 212.843L123.383 249.79L160.257 234.487L197.134 249.79L212.404 212.843L249.277 197.546L234.006 160.596L249.277 123.651ZM239.786 193.6L216.338 203.334L220.271 193.821L210.778 197.765L206.845 207.271L197.349 211.216L193.418 220.723L202.911 216.784L193.199 240.273L169.752 230.547L179.245 226.609L169.752 222.665L160.255 226.609L150.762 222.665L141.271 226.609L150.762 230.547L127.315 240.273L117.605 216.784L127.096 220.723L123.162 211.216L113.67 207.271L109.737 197.765L100.242 193.821L104.177 203.334L80.7294 193.6L90.4409 170.109L94.3756 179.622L98.3071 170.109L94.3756 160.594L98.3071 151.083L94.3756 141.572L90.4409 151.083L80.7294 127.59L104.179 117.862L100.244 127.372L109.739 123.429L113.672 113.918L123.163 109.976L127.098 100.464L117.606 104.407L127.316 80.9139L150.764 90.6425L141.272 94.5847L150.764 98.5238L160.257 94.5847L169.753 98.5238L179.246 94.5847L169.753 90.6425L193.201 80.9139L202.912 104.407L193.419 100.464L197.351 109.976L206.847 113.918L210.782 123.429L220.273 127.372L216.34 117.862L239.788 127.59L230.075 151.083L226.141 141.572L222.208 151.083L226.141 160.594L222.208 170.109L226.141 179.622L230.075 170.109L239.786 193.6Z"
        fill="white" />
    <path
        d="M98.2814 132.133L96.3381 136.82L100.281 146.324L107.77 128.191L98.2814 132.133ZM188.665 98.5013L183.986 96.5543L174.504 100.503L192.597 108.003L188.665 98.5013ZM98.2814 132.133L96.3381 136.82L100.281 146.324L107.77 128.191L98.2814 132.133ZM127.915 213.191L131.848 222.691L136.525 224.641L146.01 220.688L127.915 213.191ZM188.665 98.5013L183.986 96.5543L174.504 100.503L192.597 108.003L188.665 98.5013ZM220.235 174.869L212.747 193L222.232 189.061L224.176 184.377L220.235 174.869ZM98.2814 132.133L96.3381 136.82L100.281 146.324L107.77 128.191L98.2814 132.133ZM127.915 213.191L131.848 222.691L136.525 224.641L146.01 220.688L127.915 213.191ZM188.665 98.5013L183.986 96.5543L174.504 100.503L192.597 108.003L188.665 98.5013ZM220.235 174.869L212.747 193L222.232 189.061L224.176 184.377L220.235 174.869ZM98.2814 132.133L96.3381 136.82L100.281 146.324L107.77 128.191L98.2814 132.133ZM127.915 213.191L131.848 222.691L136.525 224.641L146.01 220.688L127.915 213.191ZM188.665 98.5013L183.986 96.5543L174.504 100.503L192.597 108.003L188.665 98.5013ZM220.235 174.869L212.747 193L222.232 189.061L224.176 184.377L220.235 174.869ZM220.235 174.869L212.747 193L222.232 189.061L224.176 184.377L220.235 174.869ZM188.665 98.5013L183.986 96.5543L174.504 100.503L192.597 108.003L188.665 98.5013ZM127.915 213.191L131.848 222.691L136.525 224.641L146.01 220.688L127.915 213.191ZM98.2814 132.133L96.3381 136.82L100.281 146.324L107.77 128.191L98.2814 132.133ZM220.235 174.869L212.747 193L222.232 189.061L224.176 184.377L220.235 174.869ZM188.665 98.5013L183.986 96.5543L174.504 100.503L192.597 108.003L188.665 98.5013ZM127.915 213.191L131.848 222.691L136.525 224.641L146.01 220.688L127.915 213.191ZM98.2814 132.133L96.3381 136.82L100.281 146.324L107.77 128.191L98.2814 132.133ZM220.235 174.869L212.747 193L222.232 189.061L224.176 184.377L220.235 174.869ZM188.665 98.5013L183.986 96.5543L174.504 100.503L192.597 108.003L188.665 98.5013ZM127.915 213.191L131.848 222.691L136.525 224.641L146.01 220.688L127.915 213.191ZM98.2814 132.133L96.3381 136.82L100.281 146.324L107.77 128.191L98.2814 132.133ZM127.915 213.191L131.848 222.691L136.525 224.641L146.01 220.688L127.915 213.191ZM220.235 174.869L212.747 193L222.232 189.061L224.176 184.377L220.235 174.869Z"
        fill="white" />
    <path d="M369.85 108.17H355.225V37.8032L402.17 79.4256V40.0431H416.888V110.317L369.848 69.3462V108.17H369.85Z"
        fill="white" />
    <path
        d="M470.355 103.037C468.212 105.931 462.065 109.29 454.799 109.29C438.591 109.29 429.09 97.2527 429.09 82.5054C429.09 67.7613 438.591 55.7205 454.799 55.7205C462.251 55.7205 467.747 58.7069 470.355 62.16V56.8404H484.141V108.169H470.355V103.037ZM456.848 67.9463C447.999 67.9463 442.783 74.1059 442.783 82.5054C442.783 90.6249 448.279 96.9711 456.848 96.9711C465.513 96.9711 470.914 91.4648 470.914 82.5054C470.914 74.0126 465.511 67.9463 456.848 67.9463Z"
        fill="white" />
    <path
        d="M515.159 89.8783C515.159 92.6781 515.254 97.5311 521.493 97.5311C523.075 97.5311 524.194 97.4378 525.032 97.3444V109.105C523.356 109.29 520.748 109.477 518.79 109.477C507.985 109.477 501.371 107.517 501.371 96.6928V68.2279H495.13V56.0005H501.371V42.283H515.157V56.0005H525.403V68.2279H515.157V89.8783H515.159Z"
        fill="white" />
    <path
        d="M543.755 51.4274C539.47 51.4274 535.931 48.0676 535.931 43.8695C535.931 39.7615 539.47 36.4017 543.755 36.4017C547.947 36.4017 551.393 39.7615 551.393 43.8695C551.393 48.0676 547.947 51.4274 543.755 51.4274ZM536.769 56.9337H550.74V108.17H536.769V56.9337Z"
        fill="white" />
    <path
        d="M562.105 82.5987C562.105 67.9463 574.586 55.9071 589.862 55.9071C605.138 55.9071 617.805 67.9447 617.805 82.5987C617.805 97.4377 605.137 109.384 589.862 109.384C574.587 109.384 562.105 97.4377 562.105 82.5987ZM575.797 82.5987C575.797 91.0899 581.853 97.2495 589.862 97.2495C597.78 97.2495 603.927 90.9032 603.927 82.5987C603.927 74.3859 597.78 68.133 589.862 68.133C582.038 68.133 575.797 74.4792 575.797 82.5987Z"
        fill="white" />
    <path
        d="M676.861 77.839V108.17H662.609V77.839C662.609 69.9062 658.138 67.4797 652.737 67.4797C648.918 67.4797 642.677 69.8128 642.956 81.0121V108.17H629.077V56.842H642.956V61.415C646.403 57.9619 652.085 55.9087 656.648 55.9087C671.458 55.9071 676.861 64.4932 676.861 77.839Z"
        fill="white" />
    <path
        d="M729.301 103.037C727.159 105.931 721.011 109.29 713.746 109.29C697.538 109.29 688.037 97.2527 688.037 82.5054C688.037 67.7613 697.538 55.7205 713.746 55.7205C721.198 55.7205 726.693 58.7069 729.301 62.16V56.8404H743.087V108.169H729.301V103.037ZM715.795 67.9463C706.946 67.9463 701.73 74.1059 701.73 82.5054C701.73 90.6249 707.225 96.9711 715.795 96.9711C724.459 96.9711 729.86 91.4648 729.86 82.5054C729.86 74.0126 724.459 67.9463 715.795 67.9463Z"
        fill="white" />
    <path d="M756.968 37.615H770.94V108.17H756.968V37.615Z" fill="white" />
    <path
        d="M426.575 188.623H411.765V156.054L390.901 180.317L370.036 156.054V188.623H355.225V118.258L390.901 158.575L426.575 118.258V188.623Z"
        fill="white" />
    <path
        d="M441.294 167.811V137.483H455.36V167.813C455.36 175.651 460.015 178.081 465.325 178.081C469.239 178.081 475.478 175.746 475.105 164.638V137.483H489.078V188.623H475.105V184.235C471.752 187.689 466.817 189.742 461.414 189.742C446.695 189.742 441.294 181.065 441.294 167.811Z"
        fill="white" />
    <path
        d="M499.79 181.81L507.053 172.106C511.059 174.813 517.486 177.612 523.634 177.612C527.919 177.612 530.992 175.651 530.992 173.039C530.992 169.586 523.82 169.214 521.119 168.746C514.133 167.533 500.813 165.481 500.813 152.602C500.813 137.577 517.02 136.363 521.957 136.363C530.061 136.363 536.58 138.696 543.286 143.736L536.022 153.256C532.203 151.014 527.173 148.496 521.491 148.496C518.79 148.496 514.785 149.802 514.785 152.322C514.785 155.775 522.237 156.615 524.47 156.895C533.135 158.389 544.87 159.88 544.87 173.134C544.87 183.772 537.232 189.838 523.82 189.838C512.83 189.837 505.378 186.292 499.79 181.81Z"
        fill="white" />
    <path
        d="M563.596 131.882C559.311 131.882 555.771 128.522 555.771 124.324C555.771 120.216 559.311 116.856 563.596 116.856C567.788 116.856 571.234 120.216 571.234 124.324C571.233 128.522 567.788 131.882 563.596 131.882ZM556.61 137.388H570.581V188.623H556.61V137.388Z"
        fill="white" />
    <path
        d="M581.944 163.145C581.944 148.401 594.519 136.455 609.796 136.455C620.601 136.455 629.728 141.776 634.944 151.387L622.369 156.334C619.295 151.201 614.826 148.681 609.796 148.681C601.692 148.681 595.823 154.839 595.823 163.143C595.823 171.544 601.785 177.609 609.889 177.609C614.919 177.609 619.576 175.463 622.836 170.141L634.666 174.808C629.729 184.887 621.626 189.927 609.889 189.927C594.613 189.93 581.944 177.891 581.944 163.145Z"
        fill="white" />
    <path
        d="M423.875 236.6C423.875 237.813 423.781 239.12 423.689 240.52C422.199 257.975 406.458 270.386 388.108 270.386C367.895 270.386 351.408 254.522 351.408 235.015C351.408 215.605 367.895 199.647 388.108 199.647C400.776 199.647 412.232 206.087 418.939 216.071L406.271 223.444C402.079 217.658 395.465 213.085 388.107 213.085C375.997 213.085 366.031 223.352 366.031 235.015C366.031 246.681 375.997 257.042 388.107 257.042C396.863 257.042 405.805 251.347 407.947 244.068H382.518V231.094H423.689C423.781 232.962 423.875 235.108 423.875 236.6Z"
        fill="white" />
    <path
        d="M448.28 246.399V269.078H434.401V217.751H448.28V224.564C453.497 217.656 462.161 216.723 465.792 216.818V230.442C462.439 230.16 448.28 230.815 448.28 246.399Z"
        fill="white" />
    <path
        d="M470.542 243.508C470.542 228.857 483.023 216.816 498.299 216.816C513.575 216.816 526.242 228.855 526.242 243.508C526.242 258.345 513.574 270.291 498.299 270.291C483.024 270.291 470.542 258.345 470.542 243.508ZM484.235 243.508C484.235 251.999 490.291 258.159 498.301 258.159C506.218 258.159 512.366 251.814 512.366 243.508C512.366 235.295 506.218 229.042 498.301 229.042C490.475 229.042 484.235 235.387 484.235 243.508Z"
        fill="white" />
    <path
        d="M536.584 248.266V217.935H550.65V248.266C550.65 256.107 555.306 258.534 560.615 258.534C564.529 258.534 570.768 256.199 570.396 245.094V217.935H584.368V269.076H570.396V264.692C567.042 268.143 562.107 270.198 556.704 270.198C541.985 270.199 536.584 261.52 536.584 248.266Z"
        fill="white" />
    <path
        d="M611.753 222.882C613.896 219.991 620.043 216.628 627.309 216.628C643.517 216.628 653.018 228.667 653.018 243.413C653.018 258.159 643.517 270.198 627.309 270.198C619.857 270.198 614.361 267.21 611.753 263.758V285.594H597.967V217.748H611.753V222.882ZM625.258 257.975C634.109 257.975 639.323 251.816 639.323 243.414C639.323 235.297 633.828 228.949 625.258 228.949C616.595 228.949 611.193 234.455 611.193 243.414C611.193 251.906 616.597 257.975 625.258 257.975Z"
        fill="white" />
</svg>